<?xml version="1.0" standalone="no"?>
<!DOCTYPE svg PUBLIC "-//W3C//DTD SVG 20010904//EN"
 "http://www.w3.org/TR/2001/REC-SVG-20010904/DTD/svg10.dtd">
<svg version="1.0" xmlns="http://www.w3.org/2000/svg"
 width="256.000000pt" height="256.000000pt" viewBox="0 0 256.000000 256.000000"
 preserveAspectRatio="xMidYMid meet">
<metadata>
Created by potrace 1.11, written by Peter Selinger 2001-2013
</metadata>
<g transform="translate(0.000000,256.000000) scale(0.100000,-0.100000)"
fill="#000000" stroke="none">
<path d="M2072 2222 c-163 -164 -292 -298 -522 -541 -74 -79 -154 -163 -177
-188 -24 -25 -43 -41 -43 -35 0 5 38 134 85 286 87 283 98 334 98 422 -1 131
-78 157 -231 80 -145 -73 -233 -148 -357 -302 -64 -79 -121 -146 -127 -150
-14 -9 -8 34 26 181 60 262 52 385 -25 385 -34 0 -71 -17 -144 -67 -39 -28
-57 -34 -87 -31 l-37 3 -60 -105 c-94 -167 -99 -175 -186 -350 -137 -272 -196
-410 -219 -509 -15 -65 -12 -81 15 -81 30 0 53 40 237 420 137 282 208 410
279 502 73 96 146 144 178 118 14 -12 13 -28 -10 -130 -109 -486 -119 -552
-84 -570 43 -24 79 9 265 240 205 256 330 369 423 385 75 13 75 12 20 -205
-48 -191 -102 -381 -160 -571 l-29 -95 -101 -102 c-266 -270 -444 -411 -536
-425 -36 -6 -58 14 -159 143 -96 122 -210 230 -243 230 -15 0 -10 -55 19 -200
39 -191 77 -283 151 -365 68 -73 130 -100 234 -99 74 0 88 4 167 42 48 23 122
69 166 102 90 68 282 255 391 380 109 125 99 117 109 90 7 -19 0 -46 -30 -120
-52 -127 -108 -296 -108 -325 0 -36 46 -48 116 -29 30 8 64 19 75 24 10 6 19
8 19 4 0 -3 6 -2 13 4 14 12 164 47 242 57 28 4 57 8 65 10 50 14 178 24 303
24 95 1 97 1 97 25 0 45 -18 49 -188 43 -86 -3 -168 -8 -182 -11 -14 -3 -47
-7 -75 -11 -61 -6 -225 -40 -322 -66 -40 -10 -75 -19 -78 -19 -26 0 93 296
158 392 33 49 216 114 373 133 27 3 58 8 69 10 11 2 45 7 75 10 30 3 64 8 75
10 11 2 28 4 38 4 24 1 21 27 -5 45 -38 27 -170 15 -355 -33 -89 -22 -169 -41
-178 -41 -12 0 -6 19 26 83 130 260 179 306 347 330 76 11 461 15 557 5 26 -3
30 1 33 24 4 30 -13 43 -69 54 -49 10 -256 12 -341 3 -156 -17 -194 -21 -213
-25 -11 -2 -40 -7 -63 -10 l-44 -6 115 169 c63 94 158 240 211 326 143 233
134 235 -82 19z"/>
</g>
</svg>
